<svg width="632" height="308" viewBox="0 0 632 308" fill="none" xmlns="http://www.w3.org/2000/svg">
<g clip-path="url(#clip0_2_444)">
<path d="M565.361 151.767C565.361 174.128 548.105 192.654 524.782 192.654C501.451 192.654 484.526 174.128 484.526 151.767C484.526 129.398 501.458 110.865 524.782 110.865C548.105 110.865 565.361 129.406 565.361 151.767Z" fill="#1F3E82"/>
<path d="M375.933 150.489C375.933 173.173 358.046 190.105 335.354 190.105C312.993 190.105 295.106 173.165 295.106 150.489C295.106 127.797 312.993 111.188 335.362 111.188C358.046 111.188 375.933 127.805 375.933 150.489Z" fill="#FBD02D"/>
<path d="M155.02 192.654C178.343 192.654 195.599 174.128 195.599 151.767C195.599 129.398 178.343 110.865 155.02 110.865C131.689 110.865 114.764 129.398 114.764 151.759C114.764 174.128 131.697 192.654 155.02 192.654Z" fill="#F47458"/>
<path d="M524.782 235.158C476.218 235.158 439.158 197.451 439.158 151.444C439.158 105.752 476.541 68.0526 524.782 68.0526C573.669 68.0526 610.729 106.075 610.729 151.444C610.729 197.451 573.346 235.15 524.782 235.15V235.158ZM524.782 192.654C548.113 192.654 565.361 174.128 565.361 151.767C565.361 129.398 548.113 110.865 524.782 110.865C501.458 110.865 484.526 129.398 484.526 151.759C484.526 174.128 501.458 192.654 524.782 192.654ZM332.166 308C295.106 308 266.67 291.707 252.294 262.308L289.993 241.865C297.023 255.601 310.121 266.466 331.527 266.466C358.369 266.466 376.572 247.617 376.572 216.624V213.744C367.948 224.609 352.617 232.917 330.249 232.917C285.835 232.917 250.377 198.414 250.377 151.444C250.377 105.752 287.437 68.376 336.001 68.376C385.519 68.376 421.948 103.834 421.948 151.444V215.346C421.948 271.579 383.602 308 332.166 308ZM335.362 190.105C358.046 190.105 375.941 173.165 375.941 150.489C375.941 127.797 358.046 111.188 335.362 111.188C312.993 111.188 295.106 127.805 295.106 150.489C295.106 173.173 312.993 190.105 335.362 190.105ZM155.02 235.158C106.456 235.158 69.3959 197.451 69.3959 151.444C69.3959 105.752 106.772 68.0526 155.02 68.0526C203.899 68.0526 240.967 106.075 240.967 151.444C240.967 197.451 203.584 235.15 155.02 235.15V235.158ZM155.02 192.654C178.343 192.654 195.599 174.128 195.599 151.767C195.599 129.398 178.343 110.865 155.02 110.865C131.689 110.865 114.764 129.398 114.764 151.759C114.764 174.128 131.697 192.654 155.02 192.654ZM0.450073 0H45.8185V231H0.450073V0ZM631.85 50.05C631.85 55.1554 629.822 60.0517 626.212 63.6618C622.602 67.2719 617.706 69.3 612.6 69.3C607.495 69.3 602.598 67.2719 598.988 63.6618C595.378 60.0517 593.35 55.1554 593.35 50.05C593.35 44.9446 595.378 40.0483 598.988 36.4382C602.598 32.8281 607.495 30.8 612.6 30.8C617.706 30.8 622.602 32.8281 626.212 36.4382C629.822 40.0483 631.85 44.9446 631.85 50.05Z" fill="#171A26"/>
</g>
<defs>
<clipPath id="clip0_2_444">
<rect width="631.4" height="308" fill="white" transform="translate(0.450073)"/>
</clipPath>
</defs>
</svg>
